<svg xmlns="http://www.w3.org/2000/svg" version="1.1" width="100" height="100" viewBox="0 0 100 100"><rect x="0" y="0" width="100" height="100" fill="#ffffff"/><g transform="scale(4.762)"><g transform="translate(0,0)"><path fill-rule="evenodd" d="M9 0L9 3L8 3L8 5L9 5L9 4L10 4L10 7L9 7L9 6L8 6L8 7L9 7L9 9L10 9L10 10L8 10L8 8L5 8L5 9L4 9L4 10L3 10L3 9L2 9L2 8L0 8L0 13L1 13L1 12L2 12L2 11L3 11L3 12L4 12L4 13L5 13L5 11L4 11L4 10L5 10L5 9L7 9L7 10L6 10L6 11L7 11L7 10L8 10L8 11L12 11L12 10L13 10L13 4L12 4L12 3L10 3L10 1L11 1L11 2L12 2L12 1L13 1L13 0ZM11 5L11 7L12 7L12 5ZM10 8L10 9L11 9L11 10L12 10L12 8ZM16 8L16 9L18 9L18 11L19 11L19 12L20 12L20 13L21 13L21 12L20 12L20 11L21 11L21 10L20 10L20 11L19 11L19 9L18 9L18 8ZM1 9L1 10L2 10L2 9ZM14 9L14 11L13 11L13 13L12 13L12 15L15 15L15 16L16 16L16 14L17 14L17 11L16 11L16 10L15 10L15 9ZM14 11L14 12L15 12L15 13L13 13L13 14L15 14L15 13L16 13L16 11ZM6 12L6 13L8 13L8 16L9 16L9 15L10 15L10 18L9 18L9 19L8 19L8 21L14 21L14 20L12 20L12 18L13 18L13 19L17 19L17 20L18 20L18 21L19 21L19 19L20 19L20 20L21 20L21 18L19 18L19 15L18 15L18 18L17 18L17 17L15 17L15 18L14 18L14 16L13 16L13 17L12 17L12 16L11 16L11 12L10 12L10 14L9 14L9 13L8 13L8 12ZM20 14L20 17L21 17L21 14ZM11 17L11 18L12 18L12 17ZM18 18L18 19L19 19L19 18ZM10 19L10 20L11 20L11 19ZM15 20L15 21L16 21L16 20ZM0 0L0 7L7 7L7 0ZM1 1L1 6L6 6L6 1ZM2 2L2 5L5 5L5 2ZM14 0L14 7L21 7L21 0ZM15 1L15 6L20 6L20 1ZM16 2L16 5L19 5L19 2ZM0 14L0 21L7 21L7 14ZM1 15L1 20L6 20L6 15ZM2 16L2 19L5 19L5 16Z" fill="#000000"/></g></g></svg>